<?xml version="1.0" encoding="utf-8"?>
<!-- Generator: Adobe Illustrator 15.0.0, SVG Export Plug-In . SVG Version: 6.00 Build 0)  -->
<!DOCTYPE svg PUBLIC "-//W3C//DTD SVG 1.1//EN" "http://www.w3.org/Graphics/SVG/1.1/DTD/svg11.dtd">
<svg version="1.1" id="Calque_1" xmlns="http://www.w3.org/2000/svg" xmlns:xlink="http://www.w3.org/1999/xlink" x="0px" y="0px"
	 width="176px" height="55px" viewBox="0 0 176 72" enable-background="new 0 0 176 72" xml:space="preserve">
<g>
	<path fill="#C72026" d="M173.167,60.218c0,3.043-2.466,5.509-5.509,5.509H8.387c-3.042,0-5.509-2.466-5.509-5.509V12.515
		c0-3.042,2.466-5.509,5.509-5.509h159.271c3.043,0,5.509,2.466,5.509,5.509V60.218z"/>
	<g>
		<g>
			<path fill="#FFFFFF" d="M102.481,24.982h-6.937v24.562c0,1.414-0.296,2.464-0.88,3.151c-0.585,0.684-1.338,1.025-2.268,1.025
				c-0.941,0-1.708-0.354-2.307-1.045c-0.59-0.688-0.89-1.732-0.89-3.132V24.982h-6.939c-1.088,0-1.893-0.261-2.419-0.776
				c-0.527-0.519-0.792-1.195-0.792-2.052c0-0.873,0.274-1.56,0.818-2.067c0.553-0.507,1.349-0.761,2.394-0.761h20.219
				c1.103,0,1.925,0.258,2.463,0.78c0.531,0.522,0.801,1.214,0.801,2.048c0,0.857-0.27,1.533-0.818,2.052
				C104.392,24.721,103.574,24.982,102.481,24.982z"/>
			<path fill="#FFFFFF" d="M130.22,24.598h-14.331v8.36h13.197c0.972,0,1.693,0.234,2.18,0.696c0.479,0.472,0.71,1.087,0.71,1.848
				c0,0.765-0.23,1.387-0.697,1.867c-0.479,0.48-1.204,0.715-2.192,0.715h-13.197v9.598h14.822c1.004,0,1.758,0.254,2.263,0.761
				c0.511,0.495,0.765,1.164,0.765,1.997c0,0.808-0.254,1.452-0.765,1.956c-0.505,0.507-1.259,0.753-2.263,0.753h-17.282
				c-1.372,0-2.372-0.335-2.977-0.991c-0.601-0.665-0.907-1.729-0.907-3.208V23.526c0-0.987,0.135-1.791,0.411-2.413
				c0.266-0.622,0.691-1.08,1.261-1.364c0.583-0.28,1.319-0.423,2.212-0.423h16.791c1.011,0,1.771,0.238,2.267,0.726
				c0.487,0.48,0.74,1.111,0.74,1.895c0,0.795-0.253,1.445-0.74,1.925C131.991,24.353,131.23,24.598,130.22,24.598z"/>
			<path fill="#FFFFFF" d="M145.212,22.907v11.857l12.499-14.027c0.591-0.676,1.105-1.176,1.524-1.503
				c0.425-0.319,0.985-0.476,1.68-0.476c0.915,0,1.652,0.288,2.222,0.864c0.559,0.573,0.843,1.275,0.843,2.109
				c0,1.003-0.481,1.99-1.43,2.974l-7.738,7.884l8.914,13.746c0.629,0.961,1.104,1.792,1.41,2.502
				c0.313,0.723,0.479,1.413,0.479,2.094c0,0.753-0.286,1.406-0.83,1.959c-0.55,0.55-1.302,0.83-2.235,0.83
				c-0.887,0-1.61-0.207-2.167-0.614s-1.032-0.949-1.416-1.622c-0.383-0.676-0.725-1.295-1.024-1.848l-7.52-12.448l-5.211,5.371
				v6.984c0,1.414-0.297,2.464-0.899,3.151c-0.597,0.684-1.365,1.025-2.299,1.025c-0.544,0-1.066-0.157-1.567-0.462
				c-0.497-0.306-0.874-0.726-1.146-1.243c-0.208-0.435-0.325-0.934-0.367-1.503c-0.042-0.561-0.062-1.395-0.062-2.471V22.907
				c0-1.391,0.281-2.424,0.838-3.112c0.568-0.699,1.333-1.037,2.304-1.037c0.95,0,1.726,0.338,2.308,1.026
				C144.915,20.468,145.212,21.509,145.212,22.907z"/>
		</g>
		<path fill="#FFFFFF" d="M41.527,38.538c4.149-5.966,7.233-10.011,8.937-11.595c0.638-0.608,1.914-1.806,7.333-1.806
			c1.968,0,2.285,0.126,2.285,0.92c0,0.206,0,0.446-0.051,0.962c-0.107,1.508-0.157,2.915-0.157,4.284
			c0,5.079,0.953,10.187,5.367,12.901c0.583,0.373,0.797,0.617,0.797,0.818c0,0.731-2.976,2.849-5.956,2.849
			c-2.077,0-4.201-0.617-5.952-1.776c-2.659-1.785-3.563-3.743-3.82-8.545c-0.06-1.542-0.115-1.856-0.274-2.953
			c-2.813,3.436-3.875,4.798-6.17,7.755c-1.963,2.608-3.241,4.222-3.875,4.764c-0.586,0.517-1.438,0.899-2.452,0.899
			c-1.434,0-3.398-1.341-4.67-3.159c-1.922-2.747-2.928-6.003-3.624-11.774c-1.428,1.89-1.908,2.549-3.394,4.708
			c-2.766,3.911-4.205,5.797-5.69,7.138c-0.429,0.411-0.69,0.613-1.384,1.097c-2.021,1.205-4.68,1.991-6.748,1.991
			c-0.955,0-1.599-0.315-1.599-0.724c0-0.176,0.162-0.373,0.693-0.756c0.375-0.269,0.955-0.781,1.702-1.541l1.488-1.514
			c1.013-0.961,2.76-2.986,4.254-4.801l1.221-1.512c5.208-6.348,7.442-9.297,7.442-9.666c0-0.248-0.212-0.483-0.796-0.794
			c-0.424-0.248-0.583-0.373-0.583-0.554c0-0.504,2.343-1.017,4.783-1.017c2.178,0,4.092,0.37,5.053,1.017
			c1.276,0.903,2.229,3.163,3.346,7.96c1.008,4.124,1.116,4.531,1.967,5.184L41.527,38.538z"/>
		<path fill="#FFFFFF" d="M89.595,33.984c1.167-2.134,1.279-2.306,2.124-3.437c2.341-3.222,7.235-4.843,8.721-4.843
			c0.638,0,1.008,0.181,1.008,0.53c0,1.402-9.465,13.748-13.873,18.343c-6.22,6.445-10.047,7.86-12.859,8.646
			c-1.865,0.479-3.775,0.752-5.218,0.752c-1.804,0-2.924-0.44-2.924-1.201c0-0.818,1.601-2.915,2.869-3.776
			c0.428-0.265,0.961-0.369,2.287-0.369c1.495,0,3.516,0,7.078-1.513c-2.719-2.979-4.629-5.587-5.905-7.851
			c-1.807-3.298-3.032-6.134-3.032-8.802c0-1.545,0.473-2.23,1.859-2.814c2.025-0.823,4.896-1.509,6.436-1.509
			c1.33,0,1.696-0.663,1.803,1.286c0.321,4.457,1.599,10.914,3.888,15.093C86.295,39.298,88.055,36.722,89.595,33.984z"/>
	</g>
</g>
</svg>
